<?xml version="1.0" standalone="no"?>
<!DOCTYPE svg PUBLIC "-//W3C//DTD SVG 20010904//EN"
 "http://www.w3.org/TR/2001/REC-SVG-20010904/DTD/svg10.dtd">
<svg version="1.0" xmlns="http://www.w3.org/2000/svg"
 width="2669.000000pt" height="2669.000000pt" viewBox="0 0 2669.000000 2669.000000"
 preserveAspectRatio="xMidYMid meet">
<metadata>
Created by potrace 1.11, written by Peter Selinger 2001-2013
</metadata>
<g transform="translate(0.000000,2669.000000) scale(0.100000,-0.100000)"
fill="#000000" stroke="none">
<path d="M13267 25964 c-1 -1 -108 -5 -237 -8 -129 -4 -251 -9 -270 -11 -19
-1 -87 -6 -150 -9 -63 -4 -133 -9 -155 -11 -38 -4 -99 -9 -225 -20 -30 -3 -68
-7 -85 -9 -16 -2 -64 -7 -105 -11 -41 -4 -83 -9 -92 -10 -9 -2 -48 -7 -85 -10
-37 -4 -70 -9 -73 -10 -3 -2 -30 -6 -60 -9 -30 -4 -66 -9 -80 -11 -14 -2 -45
-7 -70 -10 -54 -7 -54 -7 -249 -40 -85 -14 -164 -27 -175 -30 -12 -2 -70 -13
-131 -24 -60 -12 -117 -23 -125 -26 -8 -2 -31 -7 -50 -10 -59 -10 -326 -72
-495 -115 -88 -22 -168 -42 -177 -45 -126 -30 -524 -150 -749 -225 -267 -90
-733 -264 -854 -320 -11 -5 -63 -27 -115 -49 -52 -21 -125 -53 -162 -70 -36
-17 -68 -31 -71 -31 -26 0 -801 -389 -909 -457 -21 -13 -39 -23 -42 -23 -13 0
-481 -278 -621 -368 -371 -240 -518 -341 -803 -554 -177 -133 -453 -347 -472
-368 -3 -3 -27 -23 -55 -45 -27 -22 -57 -47 -65 -55 -9 -8 -40 -35 -70 -60
-30 -25 -60 -49 -66 -55 -15 -14 -146 -130 -219 -195 -88 -79 -332 -311 -459
-436 -159 -158 -467 -490 -611 -658 -27 -32 -55 -63 -60 -70 -6 -6 -48 -56
-94 -111 -46 -55 -93 -111 -105 -125 -11 -14 -34 -43 -50 -65 -17 -22 -33 -42
-37 -45 -6 -5 -239 -307 -271 -351 -9 -13 -52 -72 -95 -131 -43 -59 -98 -137
-123 -174 -25 -36 -54 -78 -65 -92 -11 -15 -67 -99 -125 -187 -141 -218 -123
-189 -310 -495 -20 -32 -189 -328 -223 -390 -194 -352 -378 -732 -548 -1134
-61 -144 -114 -270 -119 -281 -5 -11 -37 -94 -70 -185 -34 -91 -65 -174 -70
-185 -10 -23 -168 -497 -198 -595 -26 -83 -42 -144 -40 -150 1 -3 -4 -15 -10
-27 -10 -19 -125 -438 -138 -503 -3 -14 -14 -61 -25 -105 -12 -44 -22 -87 -24
-96 -2 -9 -13 -61 -25 -115 -27 -127 -36 -169 -75 -374 -21 -109 -38 -204 -49
-275 -10 -58 -19 -112 -22 -130 -2 -11 -6 -40 -9 -65 -3 -25 -8 -54 -10 -65
-2 -11 -7 -43 -10 -71 -3 -28 -7 -59 -9 -70 -3 -17 -9 -65 -22 -169 -3 -22 -7
-56 -9 -75 -2 -19 -7 -62 -10 -95 -3 -33 -7 -78 -10 -100 -11 -105 -19 -194
-30 -355 -3 -52 -8 -120 -10 -150 -32 -429 -22 -1301 20 -1775 2 -22 6 -76 9
-120 4 -44 9 -100 11 -125 14 -129 21 -186 30 -264 3 -24 7 -61 10 -82 6 -62
16 -137 20 -164 2 -14 7 -43 10 -65 3 -22 12 -78 20 -125 8 -47 17 -107 21
-135 3 -27 8 -59 10 -70 3 -11 18 -92 35 -180 16 -88 31 -169 33 -180 6 -32
54 -251 75 -345 11 -47 38 -159 61 -250 23 -91 43 -172 45 -180 9 -45 145
-500 197 -660 82 -253 250 -710 304 -827 8 -17 14 -34 14 -37 0 -3 8 -25 19
-49 10 -23 56 -127 101 -232 274 -629 626 -1284 979 -1820 47 -71 88 -134 90
-139 9 -22 294 -424 405 -571 156 -208 369 -474 520 -650 125 -146 141 -164
296 -335 121 -133 645 -658 770 -770 52 -47 121 -110 155 -140 73 -67 137
-122 201 -175 26 -22 77 -65 113 -96 78 -66 70 -59 242 -196 75 -60 196 -153
270 -208 74 -55 136 -102 139 -106 5 -6 349 -246 378 -264 35 -21 137 -89 147
-97 14 -12 269 -173 365 -231 74 -45 79 -50 74 -76 -5 -26 0 -31 65 -72 39
-24 70 -48 68 -54 -3 -8 93 -75 108 -75 2 0 59 -32 126 -71 363 -208 992 -509
1419 -679 85 -34 169 -68 185 -75 96 -43 739 -265 870 -300 27 -7 97 -28 154
-45 57 -17 111 -33 120 -36 9 -2 50 -13 91 -24 142 -39 425 -110 565 -141 77
-17 147 -32 155 -34 186 -42 614 -117 795 -139 28 -4 57 -9 65 -11 8 -2 38 -6
65 -10 28 -3 64 -8 80 -10 17 -2 50 -7 75 -9 25 -3 86 -10 135 -16 123 -14
170 -19 240 -25 33 -2 87 -7 120 -10 57 -5 139 -11 265 -20 413 -27 1198 -27
1610 0 75 5 233 16 270 20 19 1 69 6 110 9 64 6 223 23 390 42 56 6 106 13
145 19 17 3 46 7 65 9 38 5 41 5 275 42 173 27 197 31 235 39 481 94 594 119
1095 250 239 62 702 210 995 318 125 46 360 135 385 147 43 20 236 100 241
100 2 0 43 18 90 40 47 22 88 40 91 40 2 0 52 23 110 50 58 28 107 50 110 50
7 0 491 242 553 277 30 17 92 50 138 74 45 24 90 49 100 54 9 6 60 34 112 64
408 232 898 552 1285 840 120 89 216 162 231 176 7 5 24 19 40 30 15 11 35 27
44 35 8 8 31 26 50 40 19 14 46 35 60 47 14 12 72 61 130 109 557 459 1168
1067 1618 1609 41 50 78 92 81 95 12 10 200 249 322 410 139 182 235 316 354
490 43 63 94 136 112 162 18 26 33 50 33 52 0 3 19 33 43 68 129 189 408 663
570 968 50 95 267 528 267 534 0 2 27 61 60 131 33 70 60 129 60 131 0 3 10
26 21 52 56 122 167 394 248 607 11 28 31 79 44 115 33 84 188 550 222 666 60
202 97 330 100 344 2 8 18 67 35 130 17 63 34 126 36 140 3 14 7 32 10 40 3 8
8 26 11 40 2 14 15 71 28 128 14 56 27 113 29 125 3 12 16 76 31 142 32 146
84 430 111 600 2 17 7 41 9 55 3 14 8 43 10 65 8 66 19 141 30 213 9 58 13 86
20 162 3 36 8 72 10 80 2 8 7 51 11 95 3 44 8 88 10 98 1 9 6 56 9 105 4 48 9
101 11 117 2 17 6 82 10 145 3 63 7 131 10 150 29 275 23 1223 -10 1655 -4 44
-9 109 -11 145 -8 105 -23 254 -30 300 -2 14 -7 61 -11 105 -3 44 -8 89 -10
100 -2 11 -7 43 -10 70 -3 28 -7 59 -9 71 -3 11 -7 45 -10 75 -3 30 -8 65 -11
77 -3 13 -7 43 -10 65 -3 23 -14 92 -24 152 -26 152 -31 186 -36 216 -5 37
-90 462 -109 544 -73 320 -165 677 -236 915 -70 232 -236 732 -268 805 -5 11
-23 58 -41 105 -18 47 -36 94 -40 105 -5 11 -43 106 -86 210 -71 174 -120 287
-215 495 -41 92 -295 599 -347 695 -126 233 -294 520 -430 735 -136 214 -255
394 -264 398 -5 2 -8 8 -8 13 0 6 -17 33 -38 62 -21 29 -67 93 -102 142 -193
271 -483 642 -709 905 -69 80 -127 147 -130 150 -4 3 -38 41 -76 84 -171 194
-625 655 -810 822 -50 45 -103 94 -120 109 -16 15 -46 42 -65 59 -29 27 -274
238 -360 310 -58 49 -322 257 -400 316 -47 36 -92 70 -100 77 -89 73 -739 516
-895 610 -322 195 -484 289 -680 395 -234 128 -745 374 -1010 488 -27 12 -66
28 -85 37 -86 37 -238 99 -315 128 -33 12 -105 39 -160 60 -132 50 -395 145
-417 150 -10 2 -87 26 -170 54 -289 94 -987 284 -1123 304 -16 3 -59 12 -95
20 -77 18 -127 29 -275 57 -60 11 -121 22 -135 25 -14 3 -45 8 -70 11 -25 3
-47 8 -50 9 -3 2 -33 7 -65 10 -33 4 -63 9 -66 11 -3 1 -28 6 -55 9 -27 4 -56
8 -64 10 -8 3 -44 7 -80 11 -36 3 -68 8 -71 10 -3 1 -32 6 -65 9 -32 3 -68 8
-80 10 -11 1 -52 6 -90 10 -38 4 -77 9 -87 11 -10 2 -46 6 -80 9 -34 3 -82 8
-107 10 -190 18 -236 22 -370 30 -58 4 -125 9 -150 10 -136 11 -913 26 -923
19z"/>
</g>
</svg>
