<?xml version="1.0" encoding="iso-8859-1"?>
<!-- Generator: Adobe Illustrator 17.0.0, SVG Export Plug-In . SVG Version: 6.00 Build 0)  -->
<!DOCTYPE svg PUBLIC "-//W3C//DTD SVG 1.1//EN" "http://www.w3.org/Graphics/SVG/1.1/DTD/svg11.dtd">
<svg version="1.1" id="Capa_1" xmlns="http://www.w3.org/2000/svg" xmlns:xlink="http://www.w3.org/1999/xlink" x="0px" y="0px"
	 width="3825.142px" height="557.888px" viewBox="-2273.142 -181.522 3825.142 557.888"
	 style="enable-background:new -2273.142 -181.522 3825.142 557.888;" xml:space="preserve">
<g>
	<path style="fill:#FFFFFF;" d="M-2229.444,312.612V-76.276h28.555l175.407,355.438l164.53-355.438h25.835v388.888h-25.835V-23.79
		l-154.467,336.402h-23.388l-164.802-339.121v339.121H-2229.444z"/>
	<path style="fill:#FFFFFF;" d="M-1782.087-76.276h33.994l125.913,225.718l129.72-225.718h31.274l-145.765,252.913v135.975h-28.555
		V176.637L-1782.087-76.276z"/>
	<path style="fill:#FFFFFF;" d="M-1405.436,312.612V-76.276h157.731c79.409,0,119.114,34.72,119.114,104.157
		c0,75.602-54.301,121.744-162.898,138.422l-10.334-42.424c79.771-11.783,119.658-43.058,119.658-93.823
		c0-43.146-23.387-64.724-70.163-64.724h-102.797v347.28H-1405.436z"/>
	<path style="fill:#FFFFFF;" d="M-1075.561,118.711c0-131.802,65.085-197.707,195.26-197.707
		c128.177,0,192.268,65.905,192.268,197.707c0,131.08-64.091,196.62-192.268,196.62
		C-1010.476,315.332-1075.561,249.792-1075.561,118.711z M-880.301,274.539c92.824,0,139.238-52.486,139.238-157.459
		c0-103.52-46.415-155.283-139.238-155.283c-94.821,0-142.23,51.764-142.23,155.283
		C-1022.531,222.053-975.122,274.539-880.301,274.539z"/>
	<path style="fill:#FFFFFF;" d="M-558.857-76.276v388.888h-50.311V-76.276H-558.857z M-285.275-76.276L-460.411,107.29
		l178.943,205.322h-69.891L-509.906,125.51V95.052l160.994-171.329H-285.275z"/>
	<path style="fill:#FFFFFF;" d="M25.835-76.276v40.792h-203.962V95.052H16.317v40.792h-194.444v135.975H29.914v40.792h-258.352
		V-76.276H25.835z"/>
	<path style="fill:#EC1C24;" d="M106.061,312.612V-76.276h141.414c128.722,0,193.084,61.282,193.084,183.838
		c0,136.702-64.362,205.05-193.084,205.05H106.061z M247.475,271.819c95.183,0,142.773-54.751,142.773-164.258
		c0-95.361-47.591-143.045-142.773-143.045h-91.104v307.303H247.475z"/>
	<path style="fill:#EC1C24;" d="M768.259-76.276v40.792H564.296V95.052H758.74v40.792H564.296v135.975h208.042v40.792H513.985
		V-76.276H768.259z"/>
	<path style="fill:#EC1C24;" d="M1142.19,299.014c-33.544,10.878-69.802,16.317-108.78,16.317
		c-135.975,0-203.962-67.533-203.962-202.603c0-127.816,67.987-191.725,203.962-191.725c38.979,0,75.236,5.439,108.78,16.317v43.512
		c-33.544-12.688-67.987-19.036-103.341-19.036c-106.061,0-159.091,50.311-159.091,150.932c0,107.875,53.03,161.81,159.091,161.81
		c35.354,0,69.797-6.344,103.341-19.037V299.014z"/>
	<path style="fill:#EC1C24;" d="M1275.444-76.276v388.888h-50.311V-76.276H1275.444z M1549.026-76.276L1373.891,107.29
		l178.942,205.322h-69.891L1324.396,125.51V95.052L1485.39-76.276H1549.026z"/>
</g>
</svg>
