<?xml version="1.0" encoding="iso-8859-1"?>
<!-- Generator: Adobe Illustrator 17.0.0, SVG Export Plug-In . SVG Version: 6.00 Build 0)  -->
<!DOCTYPE svg PUBLIC "-//W3C//DTD SVG 1.1//EN" "http://www.w3.org/Graphics/SVG/1.1/DTD/svg11.dtd">
<svg version="1.1" id="Capa_1" xmlns="http://www.w3.org/2000/svg" xmlns:xlink="http://www.w3.org/1999/xlink" x="0px" y="0px"
	 width="2601.387px" height="2669.466px" viewBox="-1049.387 -1081.343 2601.387 2669.466"
	 style="enable-background:new -1049.387 -1081.343 2601.387 2669.466;" xml:space="preserve">
<path style="fill:#4963AC;" d="M1540.479,267.419c0,704.875-571.414,1276.29-1276.29,1276.29
	c-234.127,0-453.529-63.042-642.159-173.076C-757.238,1149.39-1012.1,738.167-1012.1,267.419
	c0-704.875,571.414-1276.29,1276.29-1276.29S1540.479-437.457,1540.479,267.419z"/>
<path style="fill:#3850A2;" d="M1505.265-30.222L855.49-674.037L373.616,128.301L222.828,48.795L-108.047,592.4l14.757,254.076
	l-173.33,29.544l34.474,165.445l-124.084,152.15l3.307,144.399l-25.031,41.678c0.785,0.46,1.548,0.954,2.335,1.413
	c188.63,110.035,408.032,173.077,642.159,173.077c356.998,0,679.698-146.635,911.33-382.888
	c225.715-230.216,364.959-545.525,364.959-893.402C1542.83,171.637,1529.74,68.461,1505.265-30.222z"/>
<g>
	<path style="fill:#E39825;" d="M-321.384,1068.117c-15.505-48.643-29.375-93.718-44.255-138.458
		c-20.327-61.12-20.638-60.955,39.096-81.241c46.049-15.638,92.043-31.436,142.95-48.834
		c-34.013-125.675-67.514-247.9-100.039-370.385c-13.394-50.438-27.217-101.023-35.577-152.398
		c-2.972-18.269,4.44-43.068,15.963-58.102C-195.73,78.423-64.776-37.971,75.448-144.26
		c117.736-89.243,233.721-181.202,355.6-264.465C563.431-499.165,701.7-580.99,837.572-666.302
		c4.336-2.722,10.531-2.48,15.718-3.589c2.168,259.459,4.323,517.402,6.503,778.301c-85.704,39.183-177.84,79.939-268.764,123.242
		c-101.256,48.223-201.906,97.785-301.892,148.59c-87.702,44.563-173.822,92.232-261.278,137.291
		c-28.25,14.555-40.102,28.323-31.339,65.039C20.912,684.77,38.26,788.65,59.526,897.689
		c-81.731,16.446-165.158,33.232-255.499,51.411c29.807,87.217,57.016,166.834,87.926,257.279 M836.845-646.424
		c-31.796,17.641-61.573,33.57-90.791,50.467c-182.83,105.736-351.021,232.556-519.676,358.936
		C77.478-125.444-72.21-15.076-199.654,121.723c-37.459,40.209-72.592,82.586-108.79,123.97c1.831,2.692,3.662,5.383,5.493,8.075
		C76.295,177.085,457.875,117.338,842.873,86.994C840.903-152.676,838.895-397.008,836.845-646.424z"/>
	<path style="fill:#FBD617;" d="M856.929-674.037c4.083,258.638-9.097,525.092-5.174,773.625
		C460.771,127.964,73.494,186.856-311.274,263.327c-1.882-2.806-3.764-5.611-5.647-8.417c7.633-8.925,30.585-58.836,105.139-140.6
		C-83.372-26.514,67.853-139.756,218.268-254.256c170.371-129.692,344.685-246.917,529.625-355.09
		C777.447-626.632,824.759-656,856.929-674.037z"/>
	<path style="fill:#822419;" d="M-425.192,1088.597l112.154,2.573l-31.66-92.639l22.868-39.094l51.778,83.358l-6.085-55.665
		l63.797,50.378l-14.726-43.088l57.17,30.988l61.847,180.97l-220.843,20.135l-16.558,171.643l-46.335-29.747
		c0,0,29.066-89.433,5.505-158.374S-425.192,1088.597-425.192,1088.597z"/>
</g>
</svg>
